<?xml version="1.0" encoding="utf-8"?>
<!-- Generator: Adobe Illustrator 21.0.0, SVG Export Plug-In . SVG Version: 6.00 Build 0)  -->
<svg version="1.1" id="Layer_1" xmlns="http://www.w3.org/2000/svg" xmlns:xlink="http://www.w3.org/1999/xlink" x="0px" y="0px"
	 viewBox="0 0 512 512" style="enable-background:new 0 0 512 512;" xml:space="preserve">
<style type="text/css">
	.st0{fill:#373737;}
</style>
<g>
	<path class="st0" d="M362.8,18H149.2C76.7,18,17.7,76.9,17.7,149.4v213.3c0,72.4,59,131.4,131.5,131.4h213.6
		c72.5,0,131.5-58.9,131.5-131.4V149.4C494.3,76.9,435.3,18,362.8,18z M452.1,362.6c0,49.1-40,89.1-89.3,89.1H149.2
		c-49.2,0-89.3-40-89.3-89.1V149.4c0-49.1,40-89.1,89.3-89.1h213.6c49.2,0,89.3,40,89.3,89.1L452.1,362.6L452.1,362.6z"/>
	<path class="st0" d="M256,133.4c-67.7,0-122.8,55-122.8,122.7c0,67.6,55.1,122.6,122.8,122.6c67.7,0,122.8-55,122.8-122.6
		C378.8,188.4,323.7,133.4,256,133.4z M256,336.4c-44.4,0-80.5-36.1-80.5-80.4c0-44.3,36.1-80.4,80.5-80.4
		c44.4,0,80.5,36.1,80.5,80.4C336.5,300.3,300.4,336.4,256,336.4z"/>
	<path class="st0" d="M384,97.5c-8.1,0-16.2,3.3-21.9,9.1c-5.8,5.7-9.1,13.7-9.1,21.9c0,8.1,3.3,16.1,9.1,21.9
		c5.8,5.7,13.8,9.1,21.9,9.1c8.2,0,16.2-3.3,21.9-9.1c5.8-5.8,9.1-13.8,9.1-21.9c0-8.2-3.3-16.2-9.1-21.9
		C400.2,100.8,392.2,97.5,384,97.5z"/>
</g>
</svg>
